<svg xmlns="http://www.w3.org/2000/svg" viewBox="0 0 16 16" fill="currentColor">
  <!-- Pixel art paperclip -->
  <!-- Top curve -->
  <rect x="6" y="1" width="1" height="1"/>
  <rect x="7" y="1" width="1" height="1"/>
  <rect x="8" y="1" width="1" height="1"/>
  <rect x="5" y="2" width="1" height="1"/>
  <rect x="9" y="2" width="1" height="1"/>
  
  <!-- Outer left side -->
  <rect x="4" y="3" width="1" height="1"/>
  <rect x="4" y="4" width="1" height="1"/>
  <rect x="4" y="5" width="1" height="1"/>
  <rect x="4" y="6" width="1" height="1"/>
  <rect x="4" y="7" width="1" height="1"/>
  <rect x="4" y="8" width="1" height="1"/>
  <rect x="4" y="9" width="1" height="1"/>
  <rect x="4" y="10" width="1" height="1"/>
  <rect x="5" y="11" width="1" height="1"/>
  <rect x="6" y="12" width="1" height="1"/>
  <rect x="7" y="12" width="1" height="1"/>
  
  <!-- Inner top curve -->
  <rect x="7" y="4" width="1" height="1"/>
  <rect x="6" y="5" width="1" height="1"/>
  
  <!-- Inner left side -->
  <rect x="6" y="6" width="1" height="1"/>
  <rect x="6" y="7" width="1" height="1"/>
  <rect x="6" y="8" width="1" height="1"/>
  <rect x="6" y="9" width="1" height="1"/>
  <rect x="7" y="10" width="1" height="1"/>
  
  <!-- Outer right side going down -->
  <rect x="10" y="3" width="1" height="1"/>
  <rect x="10" y="4" width="1" height="1"/>
  <rect x="10" y="5" width="1" height="1"/>
  <rect x="10" y="6" width="1" height="1"/>
  <rect x="10" y="7" width="1" height="1"/>
  <rect x="10" y="8" width="1" height="1"/>
  <rect x="10" y="9" width="1" height="1"/>
  <rect x="10" y="10" width="1" height="1"/>
  <rect x="10" y="11" width="1" height="1"/>
  <rect x="10" y="12" width="1" height="1"/>
  <rect x="10" y="13" width="1" height="1"/>
  <rect x="9" y="14" width="1" height="1"/>
  <rect x="8" y="14" width="1" height="1"/>
  
  <!-- Inner right side -->
  <rect x="8" y="5" width="1" height="1"/>
  <rect x="8" y="6" width="1" height="1"/>
  <rect x="8" y="7" width="1" height="1"/>
  <rect x="8" y="8" width="1" height="1"/>
  <rect x="8" y="9" width="1" height="1"/>
  <rect x="8" y="10" width="1" height="1"/>
  <rect x="8" y="11" width="1" height="1"/>
  <rect x="8" y="12" width="1" height="1"/>
</svg>
